# Blender v2.92.0 OBJ File: 'demo_level.blend'
# www.blender.org
mtllib demo_level.mtl
o Cube
v 10.000000 4.000000 -10.000000
v 10.000000 0.000000 -10.000000
v 10.000000 4.000000 10.000000
v 10.000000 0.000000 10.000000
v -10.000000 4.000000 -10.000000
v -10.000000 0.000000 -10.000000
v -10.000000 4.000000 10.000000
v -10.000000 0.000000 10.000000
v -5.164197 0.000000 -4.035803
v -4.035803 0.000000 -4.035803
v -5.164197 0.000000 -5.164197
v -4.035803 0.000000 -5.164197
v -5.164197 4.000000 -5.164197
v -5.164197 4.000000 -4.035803
v -4.035803 4.000000 -4.035803
v -4.035803 4.000000 -5.164197
v 3.835803 0.000000 -2.035803
v 4.964197 0.000000 -2.035803
v 3.835803 0.000000 -3.164197
v 4.964197 0.000000 -3.164197
v 3.835803 4.000000 -3.164197
v 3.835803 4.000000 -2.035803
v 4.964197 4.000000 -2.035803
v 4.964197 4.000000 -3.164197
v -5.164197 0.000000 3.964197
v -4.035803 0.000000 3.964197
v -5.164197 0.000000 2.835803
v -4.035803 0.000000 2.835803
v -5.164197 4.000000 2.835803
v -5.164197 4.000000 3.964197
v -4.035803 4.000000 3.964197
v -4.035803 4.000000 2.835803
v 2.835803 0.000000 2.964197
v 3.964197 0.000000 2.964197
v 2.835803 0.000000 1.835803
v 3.964197 0.000000 1.835803
v 2.835803 4.000000 1.835803
v 2.835803 4.000000 2.964197
v 3.964197 4.000000 2.964197
v 3.964197 4.000000 1.835803
v -10.000000 0.000000 5.168923
v 10.000000 4.000000 5.168923
v -10.000000 4.000000 5.168923
v 10.000000 0.000000 5.168923
v -10.000000 4.000000 -0.816881
v 10.000000 0.000000 -0.816881
v -10.000000 0.000000 -0.816881
v 10.000000 4.000000 -0.816881
v 13.710343 4.000000 -0.816881
v 13.710343 4.000000 5.168923
v 13.710343 0.000000 5.168923
v 13.710343 0.000000 -0.816881
v 2.666711 0.000000 -10.000000
v 2.666711 4.000000 10.000000
v 2.666711 0.000000 10.000000
v 2.666711 4.000000 -10.000000
v 2.666711 0.000000 5.168923
v 2.666711 4.000000 5.168923
v 2.666711 4.000000 -0.816881
v 2.666711 0.000000 -0.816881
v -2.090065 0.000000 -10.000000
v -2.090065 4.000000 10.000000
v -2.090065 4.000000 5.168923
v -2.090065 4.000000 -0.816881
v -2.090065 0.000000 10.000000
v -2.090065 4.000000 -10.000000
v -2.090065 0.000000 5.168923
v -2.090065 0.000000 -0.816881
v -2.090065 4.000000 -13.845831
v 2.666711 4.000000 -13.845831
v 2.666711 0.000000 -13.845831
v -2.090065 0.000000 -13.845831
v -1.177956 0.000000 1.166130
v 1.123119 0.000000 1.166130
v -1.177956 0.000000 -1.134945
v 1.123119 0.000000 -1.134945
v -0.671563 0.500000 -0.628552
v -0.671563 0.500000 0.659737
v 0.616726 0.500000 0.659737
v 0.616726 0.500000 -0.628552
v -1.177956 0.500000 -1.134945
v -1.177956 0.500000 1.166130
v 1.123119 0.500000 1.166130
v 1.123119 0.500000 -1.134945
v -0.671563 0.500000 -0.628552
v -0.671563 0.500000 0.659737
v 0.616726 0.500000 0.659737
v 0.616726 0.500000 -0.628552
v -0.671563 1.000000 -0.628552
v -0.671563 1.000000 0.659737
v 0.616726 1.000000 0.659737
v 0.616726 1.000000 -0.628552
vt 0.666803 0.400980
vt 0.666803 0.502857
vt 0.500000 0.502857
vt 0.500000 0.400980
vt 0.168703 0.757811
vt 0.168703 0.924614
vt 0.084351 0.924614
vt 0.084351 0.757811
vt 0.084351 0.730962
vt 0.084351 0.924614
vt 0.000000 0.924614
vt 0.000000 0.730962
vt 0.232886 0.400980
vt 0.232886 0.502857
vt 0.078243 0.502857
vt 0.078243 0.400980
vt 0.590460 0.502857
vt 0.590460 0.604734
vt 0.506108 0.604734
vt 0.506108 0.502857
vt 0.421757 0.502857
vt 0.421757 0.657501
vt 0.337405 0.657501
vt 0.337405 0.502857
vt 0.361201 0.765647
vt 0.361201 0.741852
vt 0.384996 0.741852
vt 0.384996 0.765647
vt 0.408792 0.765647
vt 0.384996 0.765647
vt 0.384996 0.741852
vt 0.408792 0.741852
vt 0.671560 0.651692
vt 0.695355 0.651692
vt 0.695355 0.736043
vt 0.671560 0.736043
vt 0.674811 0.502857
vt 0.698606 0.502857
vt 0.698606 0.587209
vt 0.674811 0.587209
vt 0.695355 0.651692
vt 0.719151 0.651692
vt 0.719151 0.736043
vt 0.695355 0.736043
vt 0.301579 0.669661
vt 0.325375 0.669661
vt 0.325375 0.754012
vt 0.301579 0.754012
vt 0.695355 0.759839
vt 0.695355 0.736043
vt 0.719151 0.736043
vt 0.719151 0.759839
vt 0.695355 0.759839
vt 0.671560 0.759839
vt 0.671560 0.736043
vt 0.695355 0.736043
vt 0.698606 0.502857
vt 0.722402 0.502857
vt 0.722402 0.587209
vt 0.698606 0.587209
vt 0.746197 0.502857
vt 0.769993 0.502857
vt 0.769993 0.587208
vt 0.746197 0.587208
vt 0.168703 0.696509
vt 0.192498 0.696509
vt 0.192498 0.780861
vt 0.168703 0.780861
vt 0.553699 0.689085
vt 0.577494 0.689085
vt 0.577494 0.773437
vt 0.553699 0.773437
vt 0.719151 0.759839
vt 0.719151 0.736043
vt 0.742946 0.736043
vt 0.742946 0.759839
vt 0.466640 0.764399
vt 0.442845 0.764399
vt 0.442845 0.740603
vt 0.466640 0.740603
vt 0.719151 0.651692
vt 0.742946 0.651692
vt 0.742946 0.736043
vt 0.719151 0.736043
vt 0.722402 0.502857
vt 0.746197 0.502857
vt 0.746197 0.587209
vt 0.722402 0.587209
vt 0.638050 0.687519
vt 0.661846 0.687519
vt 0.661846 0.771870
vt 0.638050 0.771870
vt 0.506108 0.689085
vt 0.529904 0.689085
vt 0.529904 0.773437
vt 0.506108 0.773437
vt 0.337405 0.765647
vt 0.337405 0.741852
vt 0.361201 0.741852
vt 0.361201 0.765647
vt 0.490436 0.764399
vt 0.466640 0.764399
vt 0.466640 0.740603
vt 0.490436 0.740603
vt 0.590460 0.687519
vt 0.614255 0.687519
vt 0.614255 0.771870
vt 0.590460 0.771870
vt 0.614255 0.687519
vt 0.638050 0.687519
vt 0.638050 0.771870
vt 0.614255 0.771870
vt 0.742946 0.651692
vt 0.766742 0.651692
vt 0.766742 0.736043
vt 0.742946 0.736043
vt 0.529904 0.689086
vt 0.553699 0.689086
vt 0.553699 0.773437
vt 0.529904 0.773437
vt 0.421757 0.713436
vt 0.421757 0.629085
vt 0.500000 0.629085
vt 0.500000 0.713436
vt 0.232886 0.274753
vt 0.078243 0.274753
vt 0.084351 0.502857
vt 0.084351 0.604734
vt 0.000000 0.604734
vt 0.000000 0.502857
vt 0.666803 0.274753
vt 0.500000 0.274753
vt 0.666803 0.081100
vt 0.500000 0.081100
vt 0.232886 0.081100
vt 0.078243 0.081100
vt 0.253054 0.502857
vt 0.253054 0.696509
vt 0.168703 0.696509
vt 0.168703 0.502857
vt 0.506108 0.502857
vt 0.506108 0.629085
vt 0.421757 0.629085
vt 0.421757 0.502857
vt 0.921757 0.400980
vt 0.921757 0.274753
vt 1.000000 0.274753
vt 1.000000 0.400980
vt 0.415648 0.657501
vt 0.415648 0.741852
vt 0.337405 0.741852
vt 0.337405 0.657501
vt 0.000000 0.400980
vt 0.000000 0.274753
vt 0.333197 0.081100
vt 0.333197 0.274753
vt 0.921757 0.081100
vt 0.767114 0.274753
vt 0.767114 0.081100
vt 0.767114 0.400980
vt 0.333197 0.400980
vt 0.587209 0.604734
vt 0.587209 0.689086
vt 0.506108 0.689086
vt 0.506108 0.604734
vt 0.333197 0.502857
vt 0.168703 0.502857
vt 0.168703 0.657500
vt 0.084351 0.657500
vt 0.084351 0.502857
vt 0.921757 0.502857
vt 0.767114 0.502857
vt 0.500000 0.400980
vt 0.500000 0.502857
vt 0.253054 0.669661
vt 0.253054 0.502857
vt 0.337406 0.502857
vt 0.337406 0.669661
vt 0.500000 0.274753
vt 0.500000 0.081100
vt 0.674811 0.502857
vt 0.674811 0.603167
vt 0.590460 0.603167
vt 0.590460 0.502857
vt 0.232886 0.000000
vt 0.333197 0.000000
vt 0.666803 0.000000
vt 0.767114 0.000000
vt 0.590460 0.687519
vt 0.590460 0.603167
vt 0.671560 0.603167
vt 0.671560 0.687519
vt 0.671560 0.651692
vt 0.671560 0.603167
vt 0.720085 0.603167
vt 0.720085 0.651692
vt 0.168703 0.502857
vt 0.168703 0.502857
vt 0.168703 0.502857
vt 0.168703 0.502857
vt 0.234674 0.696509
vt 0.234674 0.745034
vt 0.213586 0.745034
vt 0.213586 0.696509
vt 0.442845 0.713436
vt 0.442845 0.761961
vt 0.421757 0.761961
vt 0.421757 0.713436
vt 0.741172 0.603167
vt 0.741172 0.651692
vt 0.720085 0.651692
vt 0.720085 0.603167
vt 0.213586 0.696509
vt 0.213586 0.745034
vt 0.192498 0.745034
vt 0.192498 0.696509
vt 0.290900 0.707507
vt 0.290900 0.680339
vt 0.301579 0.669661
vt 0.301579 0.718185
vt 0.263733 0.707507
vt 0.253054 0.718185
vt 0.263733 0.680339
vt 0.253054 0.669661
vt 0.762260 0.603167
vt 0.762260 0.630334
vt 0.741172 0.630334
vt 0.741172 0.603167
vt 0.168703 0.502857
vt 0.168703 0.502857
vt 0.168703 0.502857
vt 0.168703 0.502857
vt 0.470012 0.740604
vt 0.442845 0.740604
vt 0.442845 0.713436
vt 0.470012 0.713436
vt 0.295230 0.718185
vt 0.295230 0.745353
vt 0.274142 0.745353
vt 0.274142 0.718185
vt 0.491100 0.713436
vt 0.491100 0.740603
vt 0.470012 0.740603
vt 0.470012 0.713436
vt 0.274142 0.718185
vt 0.274142 0.745353
vt 0.253054 0.745353
vt 0.253054 0.718185
vn 0.0000 -1.0000 0.0000
vn 0.0000 0.0000 -1.0000
vn 1.0000 0.0000 0.0000
vn 0.0000 1.0000 0.0000
vn -1.0000 0.0000 0.0000
vn 0.0000 0.0000 1.0000
usemtl Material
s off
f 63/1/1 62/2/1 7/3/1 43/4/1
f 65/5/2 8/6/2 7/7/2 62/8/2
f 47/9/3 6/10/3 5/11/3 45/12/3
f 57/13/4 55/14/4 4/15/4 44/16/4
f 44/17/5 4/18/5 3/19/5 42/20/5
f 53/21/6 2/22/6 1/23/6 56/24/6
f 9/25/1 11/26/1 12/27/1 10/28/1
f 14/29/4 15/30/4 16/31/4 13/32/4
f 12/33/2 11/34/2 13/35/2 16/36/2
f 9/37/6 10/38/6 15/39/6 14/40/6
f 10/41/3 12/42/3 16/43/3 15/44/3
f 11/45/5 9/46/5 14/47/5 13/48/5
f 17/49/1 19/50/1 20/51/1 18/52/1
f 22/53/4 23/54/4 24/55/4 21/56/4
f 20/57/2 19/58/2 21/59/2 24/60/2
f 17/61/6 18/62/6 23/63/6 22/64/6
f 18/65/3 20/66/3 24/67/3 23/68/3
f 19/69/5 17/70/5 22/71/5 21/72/5
f 25/73/1 27/74/1 28/75/1 26/76/1
f 30/77/4 31/78/4 32/79/4 29/80/4
f 28/81/2 27/82/2 29/83/2 32/84/2
f 25/85/6 26/86/6 31/87/6 30/88/6
f 26/89/3 28/90/3 32/91/3 31/92/3
f 27/93/5 25/94/5 30/95/5 29/96/5
f 33/97/1 35/98/1 36/99/1 34/100/1
f 38/101/4 39/102/4 40/103/4 37/104/4
f 36/105/2 35/106/2 37/107/2 40/108/2
f 33/109/6 34/110/6 39/111/6 38/112/6
f 34/113/3 36/114/3 40/115/3 39/116/3
f 35/117/5 33/118/5 38/119/5 37/120/5
f 48/121/6 46/122/6 52/123/6 49/124/6
f 60/125/4 57/13/4 44/16/4 46/126/4
f 8/127/3 41/128/3 43/129/3 7/130/3
f 64/131/1 63/1/1 43/4/1 45/132/1
f 66/133/1 64/131/1 45/132/1 5/134/1
f 53/135/4 60/125/4 46/126/4 2/136/4
f 2/137/5 46/138/5 48/139/5 1/140/5
f 41/128/3 47/9/3 45/12/3 43/129/3
f 52/141/5 51/142/5 50/143/5 49/144/5
f 42/145/1 48/146/1 49/147/1 50/148/1
f 44/149/2 42/150/2 50/151/2 51/152/2
f 46/126/4 44/16/4 51/153/4 52/154/4
f 61/155/4 68/156/4 60/125/4 53/135/4
f 1/157/1 48/146/1 59/158/1 56/159/1
f 48/146/1 42/145/1 58/160/1 59/158/1
f 68/156/4 67/161/4 57/13/4 60/125/4
f 53/162/5 56/163/5 70/164/5 71/165/5
f 67/161/4 65/166/4 55/14/4 57/13/4
f 4/167/2 55/168/2 54/169/2 3/170/2
f 42/145/1 3/171/1 54/172/1 58/160/1
f 41/173/4 8/174/4 65/166/4 67/161/4
f 6/175/6 61/176/6 66/177/6 5/178/6
f 47/179/4 41/173/4 67/161/4 68/156/4
f 6/180/4 47/179/4 68/156/4 61/155/4
f 56/159/1 59/158/1 64/131/1 66/133/1
f 59/158/1 58/160/1 63/1/1 64/131/1
f 55/168/2 65/5/2 62/8/2 54/169/2
f 58/160/1 54/172/1 62/2/1 63/1/1
f 72/181/6 71/182/6 70/183/6 69/184/6
f 61/155/4 53/135/4 71/185/4 72/186/4
f 56/159/1 66/133/1 69/187/1 70/188/1
f 66/189/3 61/190/3 72/191/3 69/192/3
f 73/193/1 75/194/1 76/195/1 74/196/1
f 79/197/6 80/198/6 88/199/6 87/200/6
f 76/201/2 75/202/2 81/203/2 84/204/2
f 73/205/6 74/206/6 83/207/6 82/208/6
f 74/209/3 76/210/3 84/211/3 83/212/3
f 75/213/5 73/214/5 82/215/5 81/216/5
f 78/217/4 77/218/4 81/219/4 82/220/4
f 79/221/4 78/217/4 82/220/4 83/222/4
f 80/223/4 79/221/4 83/222/4 84/224/4
f 77/218/4 80/223/4 84/224/4 81/219/4
f 88/225/2 85/226/2 89/227/2 92/228/2
f 77/229/6 78/230/6 86/231/6 85/232/6
f 80/198/6 77/229/6 85/232/6 88/199/6
f 78/230/6 79/197/6 87/200/6 86/231/6
f 90/233/4 91/234/4 92/235/4 89/236/4
f 86/237/6 87/238/6 91/239/6 90/240/6
f 87/241/3 88/242/3 92/243/3 91/244/3
f 85/245/5 86/246/5 90/247/5 89/248/5
